<svg height='75px' width='75px'  fill="#333333" xmlns="http://www.w3.org/2000/svg" xmlns:xlink="http://www.w3.org/1999/xlink" version="1.1" x="0px" y="0px" viewBox="0 0 100 100" enable-background="new 0 0 100 100" xml:space="preserve"><path fill="#333333" d="M45.869,44.532c0.473,1.308,0.42,2.387-0.156,3.208c-1.042,1.483-3.6,2.013-5.646,2.013l-1.279,0.006  c-1.704,0-3.435-0.084-4.237-1.093c-0.632-0.795-0.717-2.214-0.253-4.219c0.615-2.662,2.07-2.913,5.769-2.913  C43.725,41.534,45.027,42.207,45.869,44.532z M58.67,41.533c-3.658,0.001-4.959,0.673-5.799,2.999  c-0.473,1.308-0.42,2.387,0.155,3.208c1.042,1.483,3.599,2.013,5.644,2.013l1.279,0.006l0,0c1.705,0,3.436-0.084,4.238-1.094  c0.632-0.794,0.718-2.214,0.256-4.219C63.825,41.784,62.369,41.533,58.67,41.533z M69.963,49.405l5.004,30.118L24.02,79.419  l4.993-29.942l0.015-0.09l-0.007-0.091c-0.006-0.083-0.593-8.283,3.113-12.286c3.244-3.505,8.998-2.708,16.834,2.234l0.422,0.266  l0.409-0.286c0.063-0.044,6.349-4.403,11.856-4.403c2.16,0,3.918,0.682,5.227,2.025c2.211,2.273,3.248,6.475,3.084,12.486  L69.963,49.405z M33.252,75.941c0-0.865-0.702-1.566-1.567-1.566c-0.866,0-1.567,0.701-1.567,1.566c0,0.866,0.701,1.567,1.567,1.567  C32.55,77.509,33.252,76.808,33.252,75.941z M39.1,70.197l-2.848,1.781v5.529H39.1V70.197z M44.945,67.247l-2.846,1.78v8.48h2.846  V67.247z M46.94,48.601c0.873-1.243,0.987-2.784,0.339-4.579c-1.208-3.334-3.559-3.987-7.212-3.988c-3.234,0-6.289,0-7.231,4.075  c-0.58,2.508-0.403,4.304,0.541,5.491c1.217,1.531,3.431,1.659,5.411,1.659l1.279-0.006C41.243,51.252,45.213,51.061,46.94,48.601z   M50.793,66.119l-1.425-0.911l-1.423,0.874v11.426h2.848V66.119z M52.189,56.629c0-1.537-1.249-2.785-2.784-2.785  c-1.539,0-2.785,1.247-2.785,2.785v3.646h5.569V56.629z M56.641,69.068l-2.851-1.821v10.261h2.851V69.068z M62.488,71.998  l-2.848-1.781v7.271h2.848V71.998z M65.361,49.599c0.943-1.187,1.121-2.983,0.543-5.491c-0.945-4.074-4-4.074-7.234-4.074  c-3.653,0.001-6.004,0.654-7.209,3.989c-0.649,1.794-0.535,3.335,0.338,4.579c1.727,2.46,5.695,2.651,6.871,2.651l1.279,0.006l0,0  C61.93,51.258,64.143,51.13,65.361,49.599z M68.62,75.943c0-0.865-0.702-1.567-1.567-1.567s-1.566,0.702-1.566,1.567  s0.701,1.566,1.566,1.566S68.62,76.809,68.62,75.943z M79.115,83.88H67.217c-0.874,0-2.302,0-3.172,0H52.143  c-0.871,0-2.062,0-2.645,0c-0.582,0-1.772,0-2.643,0H34.957c-0.874,0-2.302,0-3.173,0H19.887c-0.874,0-1.412-0.952-1.203-2.119  l6.098-32.163c0.121-0.299,0.241-0.576,0.36-0.844c-0.184-1.349-0.28-2.73-0.28-4.137c0-15.112,11.029-27.362,24.636-27.362  c13.607-0.002,24.641,12.249,24.641,27.362c0,1.5-0.113,2.97-0.322,4.403c0.135,0.308,0.27,0.646,0.402,1.042l6.094,31.698  C80.528,82.928,79.986,83.88,79.115,83.88z M76.737,81.027l-5.272-31.726c0.166-6.394-1.014-10.936-3.51-13.501  c-1.6-1.645-3.721-2.479-6.301-2.479c-5.195,0-10.749,3.378-12.302,4.395c-8.382-5.181-14.632-5.713-18.322-1.723  c-3.969,4.291-3.578,12.312-3.511,13.324L22.25,80.915L76.737,81.027z"></path></svg>
