<svg fill="#c7f774" xmlns="http://www.w3.org/2000/svg" xmlns:xlink="http://www.w3.org/1999/xlink" xml:space="preserve" version="1.1" style="shape-rendering:geometricPrecision;text-rendering:geometricPrecision;image-rendering:optimizeQuality;" viewBox="0 0 847 847" x="0px" y="0px" fill-rule="evenodd" clip-rule="evenodd"><defs><style type="text/css">.fil0 {fill:#c7f774;fill-rule:nonzero}</style></defs><g><path class="fil0" d="M207 752c-1,4 -2,8 -2,12l0 26c0,18 15,33 33,33l371 0c18,0 33,-15 33,-33l0 -26c0,-4 -1,-8 -3,-12 103,-60 161,-151 159,-271 -15,-19 -62,-43 -85,-50 6,-53 -25,-97 -68,-115l55 -244c1,-7 -3,-13 -9,-14l0 0c-7,-2 -13,2 -15,8l-54 244c-16,-2 -35,-1 -51,5l14 -278c0,-7 -5,-13 -12,-13l0 0c-6,0 -12,5 -12,11l-14 289c-106,-149 -330,-92 -364,87 -71,-14 -112,27 -134,70 -2,120 56,211 158,271zm408 -412l-31 141 -21 0 7 -131c14,-7 29,-11 45,-10zm-75 30c2,-1 3,-2 5,-4l-5 115 -456 0c31,-53 93,-48 126,-29 11,-197 231,-252 330,-82zm68 111l30 -136c34,14 53,55 39,107 27,7 51,14 74,29l-143 0zm-529 29l689 0c-6,100 -73,180 -159,225l-27 14 28 13c1,0 2,1 2,2l0 26c0,1 -1,3 -3,3l-371 0c-2,0 -3,-2 -3,-3l0 -26c0,-1 0,-2 1,-2l28 -13 -27 -14c-85,-45 -153,-125 -158,-225z"></path></g></svg>
