<svg height='75px' width='75px'  fill="#ffffff" xmlns="http://www.w3.org/2000/svg" xmlns:xlink="http://www.w3.org/1999/xlink" version="1.1" x="0px" y="0px" viewBox="0 0 100 100" enable-background="new 0 0 100 100" xml:space="preserve"><path fill="#ffffff" d="M62.878,49.533c0.011,0.105,0.032,0.208,0.032,0.316c0,1.816-1.478,3.295-3.294,3.295  s-3.294-1.479-3.294-3.295c0-0.161,0.025-0.315,0.048-0.471c0.345,0.097,0.826,0.208,1.47,0.302  c-0.005,0.057-0.017,0.111-0.017,0.169c0,0.99,0.803,1.793,1.793,1.793s1.793-0.803,1.793-1.793c0-0.014-0.004-0.026-0.004-0.04  C62.047,49.745,62.531,49.636,62.878,49.533z M54.506,60.405c-2.957,0.215-4.706,0.914-4.723,0.921  c-0.009,0.004-0.019,0.002-0.028,0.006c-0.081,0.029-0.164,0.049-0.251,0.049c-0.001,0-0.002,0.001-0.003,0.001h0h0  c-0.001,0-0.002-0.001-0.003-0.001c-0.087,0-0.171-0.02-0.251-0.049c-0.009-0.004-0.019-0.002-0.028-0.006  c-0.018-0.007-1.766-0.706-4.724-0.921l-0.127-0.021c-0.253-0.063-0.479-0.123-0.696-0.184c1.572,0.979,3.538,1.906,5.83,1.906  c2.242,0,4.17-0.904,5.723-1.877c-0.188,0.051-0.375,0.102-0.59,0.154L54.506,60.405z M42.448,49.922  c0-0.161-0.025-0.316-0.048-0.472c-0.344,0.097-0.826,0.208-1.47,0.303c0.005,0.057,0.017,0.111,0.017,0.169  c0,0.99-0.803,1.793-1.793,1.793s-1.793-0.803-1.793-1.793c0-0.014,0.004-0.026,0.004-0.04c-0.642-0.063-1.126-0.173-1.473-0.276  c-0.01,0.106-0.032,0.208-0.032,0.316c0,1.816,1.478,3.294,3.294,3.294S42.448,51.738,42.448,49.922z M69.786,51.827  c0,3.763-2.052,7.016-5.106,8.094l-0.167,0.059l-0.122,0.127c-4.404,4.547-11.029,7.265-14.89,7.265  c-4.876,0-10.963-2.785-14.802-6.774l-0.215-0.155c-3.545-1.71-5.269-4.528-5.269-8.614c0-5.643,5.313-12.031,11.179-15.786  c0.3,0.253,0.599,0.487,0.89,0.688c2.182,1.502,2.762,4.807,2.768,4.84c0.062,0.366,0.379,0.626,0.739,0.626  c0.041,0,0.083-0.003,0.125-0.01c0.408-0.068,0.684-0.454,0.616-0.862c-0.026-0.161-0.684-3.962-3.396-5.829  c-0.121-0.083-0.245-0.177-0.369-0.272c2.389-1.342,4.806-2.215,6.943-2.394l0.043,9.302c0.002,0.413,0.337,0.747,0.75,0.747  c0.001,0,0.002,0,0.003,0c0.414-0.002,0.749-0.339,0.747-0.753l-0.043-9.302c2.176,0.163,4.649,1.055,7.089,2.435  c-0.117,0.092-0.234,0.184-0.348,0.265c-2.684,1.91-3.283,5.721-3.307,5.882c-0.063,0.409,0.22,0.79,0.629,0.852  c0.038,0.006,0.076,0.009,0.113,0.009c0.364,0,0.684-0.266,0.74-0.637c0.006-0.033,0.535-3.347,2.693-4.884  c0.275-0.195,0.557-0.423,0.84-0.667C64.504,39.834,69.786,46.201,69.786,51.827z M39.154,54.716c2.644,0,4.794-2.15,4.794-4.794  s-2.151-4.794-4.794-4.794s-4.794,2.15-4.794,4.794S36.51,54.716,39.154,54.716z M62.793,59.572c-0.01-0.005-0.73-0.424-2.419-1.512  c-0.055-0.082-0.126-0.155-0.213-0.213c-0.116-0.077-0.235-0.124-0.356-0.155c-0.256-0.167-0.521-0.34-0.815-0.533l-0.434-0.284  l-0.582,0.423c-1.038,0.756-1.474,1.073-3.641,1.616c-2.528,0.19-4.206,0.7-4.833,0.92c-0.627-0.22-2.304-0.729-4.833-0.92  c-2.167-0.543-2.603-0.86-3.641-1.616l-0.582-0.423l-0.434,0.284c-2.708,1.781-3.792,2.407-3.803,2.413  c-0.359,0.206-0.483,0.665-0.277,1.023c0.207,0.36,0.665,0.484,1.024,0.277c0.037-0.021,0.776-0.448,2.574-1.608  c0.291,0.099,0.952,0.57,1.495,0.958c1.887,1.348,4.738,3.385,8.477,3.385c3.748,0,6.598-2.078,8.482-3.453  c0.504-0.368,1.102-0.8,1.414-0.938c1.852,1.196,2.611,1.636,2.648,1.657c0.36,0.206,0.818,0.083,1.024-0.277  C63.275,60.237,63.151,59.778,62.793,59.572z M64.41,49.85c0-2.643-2.15-4.793-4.794-4.793s-4.794,2.15-4.794,4.793  c0,2.644,2.15,4.795,4.794,4.795S64.41,52.493,64.41,49.85z M27.715,51.827c0-3.915,2.235-8.076,5.458-11.625  c-0.807-0.585-1.724-1.041-2.726-1.319l0.001-0.006c-3.446-1.226-16.27-1.885-22.968-0.107c-1.21,0-2.191,0.981-2.191,2.191  s0.981,2.191,2.191,2.191c0.142,0,0.28-0.016,0.415-0.042l0,0.003c0.006-0.002,0.012-0.003,0.017-0.005  c0.031-0.006,0.06-0.019,0.09-0.026c4.054-1.377,10.467,10.958,19.745,11.25c0.073,0.003,0.145,0.007,0.217,0.01  C27.813,53.549,27.715,52.719,27.715,51.827z M91.52,38.771c0,0-0.001,0-0.002,0c-6.699-1.777-19.52-1.119-22.965,0.107l0.001,0.005  c-1.003,0.277-1.919,0.733-2.726,1.318c3.223,3.549,5.458,7.71,5.458,11.625c0,0.867-0.1,1.711-0.28,2.519  c0.08-0.004,0.16-0.009,0.24-0.012c9.282-0.285,15.697-12.628,19.752-11.25c0.03,0.007,0.059,0.02,0.09,0.026  c0.006,0.002,0.012,0.002,0.018,0.005v-0.003c0.135,0.026,0.272,0.042,0.414,0.042c1.211,0,2.191-0.981,2.191-2.191  S92.73,38.771,91.52,38.771z"></path></svg>
